<svg width="35" height="32" viewBox="0 0 35 32" fill="none" xmlns="http://www.w3.org/2000/svg">
<path d="M26.8997 10.3496V6.60661C27.4578 6.37558 27.9304 6.00876 28.2624 5.54887C28.5943 5.08898 28.772 4.55495 28.7748 4.00901V3.92164C28.7724 3.15869 28.4295 2.42756 27.8207 1.88807C27.212 1.34858 26.3871 1.04459 25.5263 1.04254H25.4277C24.5669 1.04459 23.7419 1.34858 23.1332 1.88807C22.5245 2.42756 22.1815 3.15869 22.1792 3.92164V4.00901C22.1819 4.55495 22.3596 5.08898 22.6916 5.54887C23.0236 6.00876 23.4961 6.37558 24.0543 6.60661V10.3496C22.4496 10.5671 20.9383 11.1565 19.6733 12.0581L8.07685 4.06143C8.15939 3.79763 8.20356 3.52557 8.20828 3.25186C8.20914 2.60947 7.99506 1.98128 7.5931 1.44673C7.19114 0.912174 6.61935 0.495267 5.95005 0.248727C5.28075 0.00218587 4.54399 -0.0629153 3.83294 0.0616553C3.1219 0.186226 2.4685 0.494874 1.95537 0.948568C1.44224 1.40226 1.09243 1.98063 0.950182 2.61052C0.807929 3.24042 0.879618 3.89355 1.15619 4.48734C1.43276 5.08112 1.90179 5.58888 2.50396 5.94641C3.10613 6.30394 3.81441 6.49518 4.53921 6.49595C5.17586 6.49385 5.80065 6.34319 6.35074 6.05913L17.7522 13.9257C16.7253 15.2989 16.1895 16.9146 16.2149 18.5619C16.2403 20.2091 16.8257 21.8113 17.8946 23.1591L14.4249 26.2343C14.1463 26.1557 13.8563 26.1138 13.564 26.11C12.9683 26.11 12.386 26.2666 11.8907 26.5599C11.3954 26.8532 11.0093 27.2701 10.7814 27.7579C10.5534 28.2457 10.4938 28.7824 10.61 29.3002C10.7262 29.818 11.013 30.2937 11.4343 30.667C11.8555 31.0403 12.3922 31.2946 12.9764 31.3976C13.5607 31.5006 14.1663 31.4477 14.7166 31.2457C15.267 31.0436 15.7374 30.7015 16.0683 30.2625C16.3993 29.8235 16.5759 29.3074 16.5759 28.7794C16.5719 28.5204 16.5247 28.2633 16.4357 28.0165L19.8682 24.9743C20.9887 25.7328 22.2899 26.2544 23.6725 26.4993C25.0551 26.7441 26.4826 26.7058 27.8459 26.3871C29.2092 26.0685 30.4724 25.478 31.539 24.6607C32.6055 23.8434 33.4473 22.8209 34 21.6713C34.5528 20.5217 34.8018 19.2754 34.7282 18.0275C34.6546 16.7796 34.2602 15.5631 33.5752 14.4709C32.8902 13.3786 31.9327 12.4395 30.7758 11.7253C29.6189 11.0111 28.2931 10.5405 26.8997 10.3496V10.3496ZM25.4781 22.6621C24.5388 22.6621 23.6207 22.4152 22.8397 21.9527C22.0587 21.4902 21.45 20.8329 21.0906 20.0638C20.7312 19.2947 20.6371 18.4484 20.8204 17.632C21.0036 16.8155 21.4559 16.0655 22.12 15.4769C22.7842 14.8883 23.6304 14.4874 24.5516 14.325C25.4728 14.1626 26.4277 14.2459 27.2954 14.5645C28.1632 14.8831 28.9049 15.4225 29.4267 16.1147C29.9485 16.8069 30.2271 17.6206 30.2271 18.4531C30.2271 19.5694 29.7267 20.6399 28.8361 21.4293C27.9455 22.2186 26.7376 22.6621 25.4781 22.6621" fill="#FF7A59"/>
</svg>
